# xmcd
#
# Track frame offsets: 
#        150
#        15562
#        33539
#        56672
#        74373
#        90168
#        108114
#        125522
#        144395
#        157977
#        176575
#        192191
#        209027
#        221990
#        238397
#        262711
#        283009
#        298733
#        316359
#        332747
#
# Disc length: 4640 seconds
#
# Revision: 2
# Processed by: cddbd v1.5.2PL0 Copyright (c) Steve Scherf et al.
# Submitted via: ExactAudioCopy v0.95b4
#
DISCID=2f121e14
DTITLE=BZN - 100 x BZN - CD 3
DYEAR=2013
DGENRE=Pop
TTITLE0=Twilight
TTITLE1=De zon, de zee
TTITLE2=It happened 25 years ago (Medley)
TTITLE3=Melodie d'amour
TTITLE4=Montmartre
TTITLE5=When will we meet again
TTITLE6=La legionnaire
TTITLE7=Mexican night
TTITLE8=Mijn platteland
TTITLE9=Vive l'amour
TTITLE10=The gypsy music
TTITLE11=Walking in heaven
TTITLE12=Ik ben stapelgek
TTITLE13=Duizend keer
TTITLE14=Le lac du connemarie
TTITLE15=La difference
TTITLE16=La Spagnola
TTITLE17=Hou me vast
TTITLE18=Quiereme mucho
TTITLE19=The Clown
EXTD=
EXTT0=
EXTT1=
EXTT2=
EXTT3=
EXTT4=
EXTT5=
EXTT6=
EXTT7=
EXTT8=
EXTT9=
EXTT10=
EXTT11=
EXTT12=
EXTT13=
EXTT14=
EXTT15=
EXTT16=
EXTT17=
EXTT18=
EXTT19=
PLAYORDER=
